<svg xmlns="http://www.w3.org/2000/svg" id="Layer_1" data-name="Layer 1" viewBox="0 0 146.68 28.35">
  <defs/>
  <defs>
    <style>
      .cls-1{fill:#2d313d}
    </style>
  </defs>
  <path d="M57.71 25c0 .36.25.66.73.89a10.2 10.2 0 001.78.61 17 17 0 012.1.66 4 4 0 011.77 1.34 3.65 3.65 0 01.73 2.34 3.8 3.8 0 01-1.58 3.27 6.62 6.62 0 01-4 1.14Q55 35.24 53.5 32l3.08-1.74a2.56 2.56 0 002.7 1.74c1.27 0 1.91-.39 1.91-1.18 0-.37-.25-.67-.73-.9a11 11 0 00-1.78-.62 17.16 17.16 0 01-2.1-.69 4.21 4.21 0 01-1.77-1.3 3.44 3.44 0 01-.74-2.25 3.86 3.86 0 011.51-3.21 5.87 5.87 0 013.73-1.17 6.3 6.3 0 013.06.75 5.55 5.55 0 012.18 2.17l-3 1.65a2.26 2.26 0 00-2.21-1.4 2 2 0 00-1.14.3.94.94 0 00-.46.83M73.4 20.69a5 5 0 013.73 1.51 5.77 5.77 0 011.48 4.19v8.46h-3.56v-8a2.85 2.85 0 00-.74-2.11 2.75 2.75 0 00-2-.73 2.91 2.91 0 00-2.2.86 3.51 3.51 0 00-.83 2.56v7.44h-3.55V15.56h3.56v7.06a4.58 4.58 0 014.11-1.93M88.94 21.07h3.81l-5 13.81a9.23 9.23 0 01-2.85 4.29 6.56 6.56 0 01-4.42 1.2v-3.31a3.59 3.59 0 002.28-.61 4.2 4.2 0 001.33-2l-5.68-13.38h3.89l3.59 9.27z" class="cls-1" transform="translate(-13.76 -12.87)"/>
  <path d="M100.46 18.59c-1.94-.15-2.92.64-2.92 2.34v.14h2.92v3.42h-2.92v10.36H94V24.49h-3.76L92 21.07h2v-.14a5.78 5.78 0 011.62-4.43 6.34 6.34 0 014.85-1.33z" class="cls-1" transform="translate(-13.76 -12.87)"/>
  <path d="M109 24.49h-3.11v5.73a1.36 1.36 0 00.36 1.05 1.67 1.67 0 001 .37 13.9 13.9 0 001.7 0v3.22q-3.66.42-5.16-.69c-1-.73-1.51-2-1.51-3.94v-5.74H100v-3.42h2.39v-2.78l3.56-.06v2.84H109zM115 30.76a3.63 3.63 0 002.72 1.09 3.72 3.72 0 002.75-1.09 3.82 3.82 0 001.09-2.8 3.78 3.78 0 00-1.09-2.79 3.72 3.72 0 00-2.75-1.09 3.63 3.63 0 00-2.72 1.09 3.78 3.78 0 00-1.06 2.83 3.81 3.81 0 001.08 2.8m3.39-10.07a6.28 6.28 0 014.75 2.1 7.31 7.31 0 012 5.17 7.3 7.3 0 01-2 5.17 6.25 6.25 0 01-4.75 2.11 5.35 5.35 0 01-4.47-2v7.14h-3.55V21.07h3.55v1.63a5.35 5.35 0 014.47-2" class="cls-1" transform="translate(-13.76 -12.87)"/>
  <path d="M112.5 1.86h3.56v20.12h-3.56z" class="cls-1"/>
  <path d="M135.61 30.76a3.63 3.63 0 002.72 1.09 3.72 3.72 0 002.75-1.09 4.13 4.13 0 000-5.59 3.72 3.72 0 00-2.75-1.09 3.63 3.63 0 00-2.72 1.09 3.78 3.78 0 00-1.08 2.83 3.8 3.8 0 001.08 2.8m6.56-9.69h3.55v13.74h-3.55v-1.62a5.43 5.43 0 01-4.5 2 6.21 6.21 0 01-4.67-2.1 7.26 7.26 0 01-2-5.13 7.28 7.28 0 012-5.17 6.23 6.23 0 014.72-2.1 5.43 5.43 0 014.5 2zM155.23 20.69A5 5 0 01159 22.2a5.73 5.73 0 011.48 4.19v8.46h-3.56v-8a2.81 2.81 0 00-.74-2.11 2.75 2.75 0 00-2-.73 2.93 2.93 0 00-2.2.86 3.55 3.55 0 00-.83 2.56v7.44h-3.55v-13.8h3.55v1.55a4.6 4.6 0 014.11-1.93M27.94 27h-8.12a6.06 6.06 0 00-6.06-6v-8.13A14.19 14.19 0 0127.94 27" class="cls-1" transform="translate(-13.76 -12.87)"/>
  <path fill="#9865f6" d="M42.11 21v-8.13A14.19 14.19 0 0027.93 27a6.06 6.06 0 01-6.05 6.06v8.12A14.19 14.19 0 0036.05 27a6.07 6.07 0 016.06-6" transform="translate(-13.76 -12.87)"/>
</svg>